# xmcd
# 
# Track frame offsets:
#     150
#     16105
#     38476
#     58460
#     73089
#     93325
#     112628
#     131070
#     147877
#     166366
#     187917
#     212446
#     227806
#     244186
#     262719
#     277722
# 
# Disc length: 3876
# 
# Revision: 4
# Processed by: cddbd v1.5.2PL0 Copyright (c) Steve Scherf et al.
# Submitted via: fre:ac v1.1beta1pre5
# 
DISCID=ce0f2210
DTITLE=Isabelle Boulay - Etats d'amour
DYEAR=1998
DGENRE=Chanson
TTITLE0=Je t'oublirai, je t'oublirai
TTITLE1=Le banc des delaisses
TTITLE2=Les yeux au ciel
TTITLE3=J'ai mal a l'amour
TTITLE4=L'heroine de cette histoire
TTITLE5=N'oubliez jamais
TTITLE6=Etat d'amour
TTITLE7=La lune
TTITLE8=Tombee de toi
TTITLE9=L'amour dans l'ame
TTITLE10=Le saule
TTITLE11=Homme sweet homme
TTITLE12=T'es pas mon fils
TTITLE13=C'etait l'hiver
TTITLE14=L'hymne a la beaute du monde
TTITLE15=Blanche comme la neige
EXTD=
EXTT0=
EXTT1=
EXTT2=
EXTT3=
EXTT4=
EXTT5=
EXTT6=
EXTT7=
EXTT8=
EXTT9=
EXTT10=
EXTT11=
EXTT12=
EXTT13=
EXTT14=
EXTT15=
PLAYORDER=
